<?xml version="1.0" encoding="UTF-8" standalone="no"?><!DOCTYPE svg PUBLIC "-//W3C//DTD SVG 1.1//EN" "http://www.w3.org/Graphics/SVG/1.1/DTD/svg11.dtd"><svg width="100%" height="100%" viewBox="0 0 3739 1181" version="1.1" xmlns="http://www.w3.org/2000/svg" xmlns:xlink="http://www.w3.org/1999/xlink" xml:space="preserve" xmlns:serif="http://www.serif.com/" style="fill-rule:evenodd;clip-rule:evenodd;stroke-linejoin:round;stroke-miterlimit:1.41421;"><g><path d="M2025.85,1046.26c0,0 339.18,138.46 453.1,75.52c0,0 -211.95,-58.47 -207.07,-170.52c4.88,-112.06 -246.03,95 -246.03,95Z" style="fill:#a9aaab;fill-rule:nonzero;"/><path d="M2469.45,1122.37c0,0 -4.08,-0.39 -11.17,-1.55c-7.06,-1.24 -17.19,-2.97 -29.13,-6c-11.94,-3.02 -25.84,-6.84 -40.36,-12.08c-14.55,-5.16 -29.76,-11.63 -44.4,-19.29c-7.3,-3.86 -14.47,-8 -21.31,-12.43c-6.91,-4.32 -13.32,-9.18 -19.43,-13.96c-3.01,-2.47 -5.91,-4.96 -8.72,-7.43c-2.68,-2.62 -5.29,-5.18 -7.83,-7.68c-2.4,-2.64 -4.73,-5.2 -6.98,-7.68c-2.1,-2.62 -4.12,-5.14 -6.07,-7.57c-3.63,-5.04 -6.79,-9.78 -9.13,-14.26c-2.63,-4.29 -4.13,-8.46 -5.74,-11.66c-1.42,-3.31 -2.18,-6.05 -2.86,-7.84c-0.63,-1.82 -0.97,-2.79 -0.97,-2.79c0,0 1.77,3.73 4.97,10.08c1.88,3.04 3.71,6.97 6.67,10.95c2.69,4.15 6.19,8.48 9.93,13.25c2.02,2.26 4.13,4.61 6.31,7.04c2.32,2.29 4.73,4.67 7.19,7.1c2.61,2.29 5.29,4.64 8.02,7.04c2.86,2.27 5.77,4.58 8.73,6.94c6.07,4.53 12.53,8.95 19.28,13.17c6.71,4.27 13.77,8.24 20.96,11.98c14.29,7.63 29.22,14.09 43.38,19.69c14.2,5.55 27.63,10.37 39.34,13.92c11.69,3.57 21.48,6.53 28.42,8.27c6.93,1.78 10.9,2.79 10.9,2.79Z" style="fill:#888a8d;fill-rule:nonzero;"/><path d="M2217.8,1003.68c0,0 2.72,3.37 7.86,8.89c5.14,5.53 12.74,13.17 22.42,21.67c4.69,4.42 10.26,8.65 15.93,13.36c5.94,4.36 12.06,9.15 18.73,13.62c6.64,4.5 13.55,9.1 20.88,13.25c7.13,4.5 14.77,8.34 22.42,12.18c7.46,4.22 15.56,7.07 23.2,10.6c7.73,3.36 15.68,5.78 23.18,8.62c7.57,2.7 15.16,4.41 22.21,6.59c7.03,2.28 13.94,3.3 20.25,4.65c6.34,1.08 12.06,2.8 17.29,3.31c5.21,0.68 9.74,1.28 13.48,1.77c7.5,1.07 11.78,1.68 11.78,1.68c0,0 -4.32,-0.15 -11.88,-0.42c-3.79,-0.17 -8.39,-0.39 -13.67,-0.63c-5.31,-0.04 -11.17,-1.26 -17.63,-2.11c-6.43,-1.03 -13.5,-1.7 -20.73,-3.64c-7.24,-1.83 -15.08,-3.12 -22.82,-5.75c-7.69,-2.71 -15.92,-4.83 -23.8,-8.25c-7.83,-3.52 -16.12,-6.37 -23.76,-10.6c-7.76,-3.99 -15.52,-7.98 -22.75,-12.63c-7.46,-4.26 -14.3,-9.24 -20.96,-13.97c-6.71,-4.65 -12.64,-9.91 -18.43,-14.62c-5.51,-5.07 -10.9,-9.64 -15.42,-14.35c-4.72,-4.5 -8.68,-8.98 -12.17,-12.96c-3.48,-3.98 -6.36,-7.58 -8.71,-10.56c-4.64,-6 -6.9,-9.7 -6.9,-9.7Z" style="fill:#888a8d;fill-rule:nonzero;"/><path d="M2178.73,1018.7c0,0 3.69,3.18 10.44,8.35c3.3,2.67 7.52,5.65 12.25,9.19c4.92,3.3 10.25,7.3 16.35,11.25c3.03,2.01 6.18,4.1 9.44,6.26c3.34,2.04 6.8,4.15 10.35,6.32c7,4.48 14.88,8.38 22.66,13.01c8.03,4.18 16.3,8.58 24.92,12.58c8.73,3.76 17.38,8.08 26.51,11.22c4.49,1.76 8.98,3.52 13.46,5.28c4.5,1.66 9.11,2.97 13.62,4.46c4.53,1.42 8.99,2.95 13.46,4.23c4.52,1.09 8.99,2.17 13.38,3.23c4.4,1.05 8.73,2.07 12.96,3.08c4.29,0.75 8.49,1.48 12.57,2.19c4.09,0.72 8.07,1.41 11.92,2.08c3.86,0.6 7.64,0.73 11.24,1.1c7.24,0.65 13.87,1.24 19.75,1.77c5.91,0.04 11.05,0.08 15.29,0.1c8.53,0.14 13.39,0.23 13.39,0.23c0,0 -4.85,0.38 -13.34,1.04c-4.26,0.29 -9.44,0.64 -15.38,1.05c-5.94,0.05 -12.66,-0.25 -19.98,-0.54c-3.67,-0.21 -7.51,-0.16 -11.44,-0.6c-3.92,-0.49 -7.98,-1.01 -12.15,-1.54c-4.18,-0.53 -8.47,-1.08 -12.86,-1.64c-4.37,-0.67 -8.73,-1.88 -13.23,-2.82c-4.48,-1.01 -9.03,-2.04 -13.65,-3.08c-4.56,-1.23 -9.11,-2.71 -13.74,-4.08c-4.6,-1.45 -9.31,-2.71 -13.91,-4.33c-4.57,-1.72 -9.15,-3.44 -13.74,-5.17c-9.22,-3.34 -17.94,-7.85 -26.73,-11.79c-8.68,-4.19 -17,-8.77 -25.06,-13.13c-7.88,-4.7 -15.57,-9.11 -22.45,-13.94c-3.48,-2.36 -6.87,-4.63 -10.14,-6.85c-3.19,-2.33 -6.27,-4.58 -9.22,-6.74c-6,-4.2 -11.07,-8.64 -15.72,-12.33c-4.49,-3.91 -8.48,-7.2 -11.59,-10.12c-6.33,-5.73 -9.63,-9.32 -9.63,-9.32Z" style="fill:#888a8d;fill-rule:nonzero;"/><path d="M2142.67,1035.23c0,0 3.9,3.62 11.17,9.4c3.69,2.81 8.08,6.35 13.43,9.97c2.66,1.83 5.49,3.77 8.46,5.82c3.06,1.94 6.27,3.98 9.61,6.1c6.63,4.37 14.26,8.36 22.13,12.83c8.2,3.94 16.57,8.58 25.7,12.39c4.52,1.99 9.13,4.02 13.78,6.07c4.77,1.76 9.6,3.54 14.47,5.34c9.64,3.9 19.93,6.34 29.99,9.46c10.1,3.02 20.48,4.96 30.56,7.46c10.2,1.89 20.34,3.26 30.11,4.85c9.85,0.92 19.38,1.81 28.41,2.65c2.27,0.21 4.5,0.4 6.7,0.6c2.2,0.02 4.38,0.06 6.51,0.09c4.28,0.06 8.41,0.12 12.38,0.18c7.93,-0.04 15.24,0.57 21.68,-0.02c6.45,-0.33 12.08,-0.62 16.72,-0.85c9.3,-0.4 14.61,-0.63 14.61,-0.63c0,0 -5.26,0.68 -14.49,1.88c-4.63,0.56 -10.25,1.24 -16.7,2.02c-6.44,1.06 -13.78,0.96 -21.78,1.25c-4,0.12 -8.18,0.23 -12.49,0.35c-2.15,0.06 -4.35,0.12 -6.58,0.18c-2.23,-0.1 -4.49,-0.2 -6.79,-0.31c-9.15,-0.53 -18.87,-0.74 -28.84,-1.78c-9.92,-1.47 -20.22,-2.73 -30.6,-4.5c-10.26,-2.4 -20.85,-4.21 -31.14,-7.16c-10.2,-3.31 -20.61,-5.94 -30.34,-10.04c-4.92,-1.89 -9.8,-3.77 -14.62,-5.62c-4.7,-2.15 -9.34,-4.27 -13.91,-6.36c-9.26,-3.89 -17.52,-9.06 -25.63,-13.38c-7.8,-4.86 -15.33,-9.21 -21.84,-13.9c-3.28,-2.3 -6.41,-4.51 -9.4,-6.61c-2.86,-2.27 -5.57,-4.42 -8.13,-6.44c-5.11,-4 -9.28,-7.87 -12.79,-10.93c-6.85,-6.33 -10.35,-10.36 -10.35,-10.36Z" style="fill:#888a8d;fill-rule:nonzero;"/><path d="M1891.87,246.04c0,0 265.52,-193.67 378.79,-185.14c0,0 -259.43,166.87 -104.74,269.18c154.68,102.31 -274.05,-84.04 -274.05,-84.04Z" style="fill:#a9aaab;fill-rule:nonzero;"/><path d="M1911.3,253.96c0,0 5,-3.91 13.93,-10.51c8.97,-6.54 21.68,-16.05 37.36,-26.85c15.66,-10.82 33.95,-23.43 53.96,-36.32c20.06,-12.82 41.6,-26.28 63.45,-39.24c11.05,-6.25 21.98,-12.74 33.04,-18.59c11,-5.97 21.78,-11.91 32.48,-17.18c5.32,-2.68 10.55,-5.32 15.68,-7.89c5.22,-2.37 10.34,-4.7 15.32,-6.95c4.98,-2.24 9.83,-4.42 14.52,-6.53c4.79,-1.89 9.41,-3.72 13.85,-5.47c4.45,-1.74 8.7,-3.41 12.74,-5c4.16,-1.3 8.1,-2.54 11.81,-3.69c7.44,-2.19 13.77,-4.57 19.31,-5.43c10.9,-2.17 17.13,-3.41 17.13,-3.41c0,0 -6.11,1.69 -16.8,4.64c-5.41,1.15 -11.61,3.89 -18.86,6.48c-3.6,1.36 -7.43,2.81 -11.47,4.34c-3.95,1.73 -8.12,3.55 -12.46,5.45c-4.35,1.9 -8.87,3.87 -13.55,5.91c-4.58,2.26 -9.33,4.6 -14.2,7c-9.82,4.66 -19.93,10.05 -30.44,15.56c-10.57,5.36 -21.24,11.41 -32.11,17.47c-10.95,5.94 -21.75,12.57 -32.71,18.9c-21.92,12.66 -43.56,25.83 -63.72,38.38c-10.07,6.3 -19.81,12.38 -29.04,18.15c-9.19,5.84 -17.88,11.36 -25.9,16.46c-31.99,20.59 -53.32,34.32 -53.32,34.32Z" style="fill:#888a8d;fill-rule:nonzero;"/><path d="M1952.62,287.02c0,0 3.87,-4.42 10.93,-11.88c7.08,-7.44 17.17,-18.1 29.79,-30.39c12.63,-12.27 27.39,-26.57 43.88,-41.18c8.32,-7.21 16.75,-14.87 25.68,-22.22c8.84,-7.47 17.82,-15.04 27.08,-22.3c9.18,-7.34 18.62,-14.36 27.99,-21.16c9.23,-7 18.75,-13.29 27.84,-19.52c8.95,-6.46 18.37,-11.59 26.95,-16.92c8.54,-5.43 17.29,-9.45 24.99,-13.74c7.64,-4.42 15.35,-7.16 21.87,-10.11c3.29,-1.42 6.37,-2.75 9.22,-3.97c2.95,-0.96 5.67,-1.84 8.12,-2.63c9.8,-3.08 15.4,-4.84 15.4,-4.84c0,0 -5.44,2.19 -14.96,6.02c-2.38,0.94 -5.01,1.98 -7.87,3.11c-2.76,1.39 -5.74,2.9 -8.91,4.51c-6.29,3.37 -13.67,6.51 -21.15,11.14c-7.48,4.56 -15.96,8.84 -24.23,14.56c-8.33,5.62 -17.38,11.1 -26.25,17.53c-8.96,6.31 -18.32,12.67 -27.41,19.74c-9.24,6.86 -18.51,13.98 -27.58,21.38c-9.28,7.1 -18.32,14.52 -27.22,21.84c-8.98,7.22 -17.47,14.74 -25.85,21.82c-8.3,7.18 -16.33,14.13 -23.93,20.71c-7.51,6.7 -14.61,13.04 -21.17,18.88c-12.98,11.85 -23.95,21.57 -31.39,28.64c-7.52,6.98 -11.82,10.98 -11.82,10.98Z" style="fill:#888a8d;fill-rule:nonzero;"/><path d="M2011.22,291.53c0,0 2.68,-4.68 7.77,-12.62c5.15,-7.9 12.47,-19.23 22,-32.3c9.54,-13.06 20.82,-28.22 33.87,-43.71c13.05,-15.47 27.45,-31.6 42.7,-46.95c7.72,-7.56 15.58,-15.01 23.59,-22.03c7.94,-7.1 16.04,-13.78 24.04,-20.03c15.99,-12.53 32.14,-22.64 46.46,-30.3c7.18,-3.8 13.9,-7.05 20.07,-9.4c6.06,-2.6 11.57,-4.31 16.05,-5.8c4.46,-1.54 8.17,-2.13 10.59,-2.82c2.45,-0.59 3.76,-0.91 3.76,-0.91c0,0 -1.28,0.43 -3.66,1.25c-2.37,0.89 -5.94,1.89 -10.28,3.68c-4.34,1.77 -9.65,3.83 -15.47,6.81c-2.96,1.39 -6.06,2.93 -9.23,4.77c-3.18,1.81 -6.66,3.45 -10.05,5.61c-13.89,8.04 -29.1,19.01 -44.75,31.54c-7.81,6.28 -15.72,12.98 -23.48,20.12c-7.83,7.04 -15.48,14.54 -23.05,22.12c-15.32,14.98 -29.83,30.8 -43,46c-13.15,15.22 -25.31,29.56 -35.25,42.25c-9.97,12.67 -18.31,23.23 -23.87,30.82c-5.61,7.57 -8.81,11.9 -8.81,11.9Z" style="fill:#888a8d;fill-rule:nonzero;"/><path d="M2079.57,298.29c0,0 0.21,-1.12 0.56,-3.23c0.37,-2.12 0.87,-5.22 1.72,-9.14c1.7,-7.81 4.18,-19.02 8.39,-32.12c4.22,-13.08 9.64,-28.25 16.94,-43.88c7.24,-15.65 16.29,-31.76 26.72,-46.97c10.53,-15.15 22.47,-29.35 35.04,-41.26c12.48,-12.01 25.66,-21.5 37.37,-28.78c11.74,-7.3 22.32,-11.9 29.72,-14.95c3.7,-1.51 6.68,-2.55 8.72,-3.22c2.02,-0.7 3.1,-1.07 3.1,-1.07c0,0 -4.19,1.84 -11.3,5.44c-7.15,3.52 -17.02,9.21 -28.24,16.86c-22.54,15.21 -48.72,40.76 -69.06,70.67c-10.33,14.82 -19.3,30.59 -26.92,45.76c-7.56,15.21 -13.91,29.8 -18.64,42.59c-4.73,12.79 -8.41,23.57 -10.62,31.24c-2.3,7.64 -3.5,12.06 -3.5,12.06Z" style="fill:#888a8d;fill-rule:nonzero;"/><path d="M1067.28,219.24c0,0 170.52,-187.57 248.47,-219.24c0,0 15.84,20.7 35.32,25.58c19.49,4.87 4.87,24.36 21.93,31.67c17.05,7.3 13.39,36.54 26.79,35.32c13.4,-1.22 23.15,20.7 37.76,25.58c14.62,4.87 30.45,26.8 57.25,21.92c26.79,-4.87 8.53,20.71 71.859,17.05c0,0 28.021,18.27 56.031,10.96c0,0 13.4,24.37 43.85,23.15c0,0 14.61,13.39 23.14,13.39c8.53,0 -510.34,170.52 -622.4,14.62Z" style="fill:#a9aaab;fill-rule:nonzero;"/><path d="M1089.47,229.92c0,0 11.6,-16.45 30.6,-39.75c9.45,-11.7 20.73,-25.12 33.12,-39.23c6.23,-7.02 12.57,-14.37 19.28,-21.6c6.7,-7.23 13.52,-14.57 20.33,-21.92c6.99,-7.19 13.98,-14.37 20.86,-21.44c6.88,-7.08 13.95,-13.75 20.71,-20.29c13.6,-13.01 26.71,-24.75 38.41,-34.31c5.8,-4.84 11.3,-9.07 16.29,-12.67c4.94,-3.67 9.43,-6.64 13.25,-8.9c3.73,-2.37 6.97,-3.8 9.12,-4.74c2.22,-0.83 3.39,-1.27 3.39,-1.27c0.01,0 -4.47,2.37 -11,8.12c-3.34,2.77 -7.18,6.42 -11.57,10.6c-4.37,4.19 -9.19,9.06 -14.44,14.37c-10.44,10.69 -22.46,23.32 -35.33,36.88c-12.86,13.6 -26.56,28.1 -40.27,42.6c-6.9,7.21 -13.8,14.43 -20.59,21.54c-6.83,7.07 -13.55,14.03 -20.05,20.78c-13.04,13.45 -25.32,25.91 -36,36.47c-21.25,21.2 -36.12,34.75 -36.11,34.76Z" style="fill:#888a8d;fill-rule:nonzero;"/><path d="M1357.65,30.1c0,0 -13.77,11.76 -34.42,29.41c-10.24,8.82 -22.19,19.11 -35,30.14c-6.34,5.56 -12.89,11.31 -19.55,17.14c-6.56,5.94 -13.35,11.82 -19.91,17.96c-6.6,6.09 -13.42,11.96 -19.72,18.15c-6.34,6.16 -12.92,11.87 -18.82,17.87c-5.97,5.94 -12,11.43 -17.34,17.01c-5.32,5.58 -10.77,10.51 -15.31,15.5c-4.61,4.92 -8.94,9.36 -12.8,13.3c-3.72,4.05 -6.97,7.59 -9.64,10.5c-5.39,5.82 -8.59,9.09 -8.59,9.09c0,0 2.31,-3.91 6.54,-10.66c2.15,-3.34 4.64,-7.52 7.82,-12.06c3.23,-4.5 6.89,-9.59 11.01,-15.04c3.97,-5.59 8.83,-11.16 13.82,-17.2c4.93,-6.09 10.47,-12.21 16.3,-18.45c5.75,-6.32 11.88,-12.66 18.3,-18.92c6.31,-6.37 13.08,-12.46 19.69,-18.71c6.75,-6.11 13.73,-11.95 20.47,-17.84c6.87,-5.74 13.77,-11.22 20.48,-16.47c13.47,-10.44 26.4,-19.72 37.77,-27.24c22.61,-15.23 38.9,-23.48 38.9,-23.48Z" style="fill:#888a8d;fill-rule:nonzero;"/><path d="M1381.69,65.41c0,0 -12.28,9.65 -30.68,24.14c-4.55,3.64 -9.48,7.57 -14.7,11.74c-5.17,4.19 -10.62,8.62 -16.27,13.19c-11.1,9.35 -23.12,19.08 -34.62,29.4c-5.87,5.02 -11.71,10.08 -17.25,15.28c-2.78,2.59 -5.6,5.1 -8.4,7.56c-2.71,2.56 -5.38,5.09 -8.02,7.57c-5.3,4.95 -10.4,9.75 -15.09,14.45c-4.72,4.68 -9.35,8.98 -13.33,13.21c-4.03,4.19 -7.84,7.95 -11.22,11.29c-3.24,3.46 -6.08,6.49 -8.41,8.97c-4.74,4.94 -7.56,7.71 -7.56,7.71c0,0 1.93,-3.41 5.51,-9.28c1.82,-2.92 4.05,-6.46 6.59,-10.53c2.76,-3.91 5.89,-8.32 9.43,-13.04c3.42,-4.84 7.48,-9.78 11.87,-14.93c2.18,-2.59 4.41,-5.25 6.7,-7.98c2.34,-2.67 4.89,-5.24 7.4,-7.95c5.04,-5.39 10.24,-11 15.96,-16.23c5.55,-5.41 11.37,-10.7 17.28,-15.9c5.9,-5.21 12.09,-10.07 18.07,-14.98c5.98,-4.92 12.27,-9.24 18.14,-13.68c12.03,-8.52 23.5,-16.1 33.71,-22c20.24,-12.09 34.89,-18.01 34.89,-18.01Z" style="fill:#888a8d;fill-rule:nonzero;"/><path d="M1407.23,93.95c-0.01,0 -9.95,9.85 -25.31,23.79c-7.61,7.07 -16.62,15.1 -26.23,23.74c-4.8,4.31 -9.77,8.76 -14.81,13.29c-5.12,4.44 -10.16,9.11 -15.23,13.74c-10.32,9.08 -20.27,18.51 -29.79,27.18c-4.6,4.48 -9.15,8.71 -13.49,12.74c-4.14,4.18 -8.15,8.05 -11.89,11.62c-7.13,7.41 -13.41,13.4 -17.39,17.96c-4.13,4.43 -6.62,6.94 -6.62,6.94c0,0 1.57,-3.1 4.54,-8.47c1.51,-2.66 3.23,-6.01 5.69,-9.48c2.37,-3.53 4.98,-7.61 8.12,-11.83c3.18,-4.17 6.63,-8.7 10.44,-13.36c3.93,-4.54 8.02,-9.4 12.47,-14.2c4.58,-4.67 9.08,-9.75 14.07,-14.47c5,-4.7 9.95,-9.64 15.14,-14.28c5.25,-4.59 10.47,-9.21 15.74,-13.58c5.19,-4.49 10.57,-8.56 15.71,-12.58c5.08,-4.09 10.26,-7.71 15.09,-11.23c4.81,-3.54 9.53,-6.67 13.86,-9.58c17.37,-11.6 29.89,-17.94 29.89,-17.94Z" style="fill:#888a8d;fill-rule:nonzero;"/><path d="M1437.55,118.15c0,0 -1.85,1.69 -5.18,4.48c-3.13,3.06 -7.39,7.52 -12.65,12.34c-2.6,2.49 -5.49,4.88 -8.33,8.02c-2.89,3.02 -5.88,6.25 -9.14,9.38c-6.4,6.41 -13.35,13.06 -20.52,19.48c-3.56,3.25 -6.8,6.88 -10.25,10.17c-3.34,3.39 -6.84,6.52 -10.12,9.67c-6.62,6.22 -13.01,11.84 -18.67,16.51c-11.22,9.42 -19.6,14.96 -19.6,14.96c0,0 5.13,-8.48 14.18,-20.1c4.47,-5.85 9.91,-12.5 15.95,-19.42c3.05,-3.43 6.1,-7.09 9.41,-10.6c3.28,-3.54 6.52,-7.2 10.1,-10.57c7.32,-6.59 14.86,-12.95 22.04,-18.73c3.54,-2.96 7.11,-5.63 10.45,-8.2c3.18,-2.71 6.94,-4.67 10.15,-6.6c6.5,-3.83 11.92,-6.76 15.78,-8.57c4.04,-1.48 6.4,-2.22 6.4,-2.22Z" style="fill:#888a8d;fill-rule:nonzero;"/><path d="M1505.64,140.53c0,0 -2,0.96 -5.29,2.75c-3.32,1.6 -7.91,4.44 -13.45,7.31c-2.71,1.64 -5.63,3.4 -8.78,5.09c-3.17,1.62 -6.28,3.83 -9.66,5.78c-3.34,2 -6.79,4.06 -10.3,6.15c-3.39,2.3 -6.89,4.53 -10.4,6.76c-3.49,2.25 -7.17,4.19 -10.5,6.6c-3.34,2.38 -6.79,4.5 -10.04,6.68c-3.25,2.19 -6.53,4.13 -9.63,6.01c-2.95,2.07 -5.76,4.01 -8.42,5.74c-10.54,7.04 -18.47,10.99 -18.47,10.99c0.01,0 4.93,-7.14 13.67,-16.72c2.18,-2.4 4.52,-5.05 7.18,-7.62c2.77,-2.45 5.68,-5.07 8.84,-7.6c3.15,-2.54 6.31,-5.3 9.7,-7.87c3.28,-2.72 7.13,-4.79 10.72,-7.2c3.71,-2.24 7.41,-4.48 11.06,-6.68c3.78,-2 7.68,-3.64 11.35,-5.38c7.28,-3.6 14.71,-5.72 20.9,-7.63c3.13,-0.89 6.13,-1.38 8.72,-1.9c2.56,-0.59 4.91,-0.82 6.83,-0.99c3.8,-0.39 5.97,-0.27 5.97,-0.27Z" style="fill:#888a8d;fill-rule:nonzero;"/><path d="M1566.66,157.12c0,0 -1.25,1.14 -3.449,3.12c-2.2,1.92 -5.321,4.58 -9.14,7.63c-3.85,2.97 -8.21,6.57 -13.06,10.06c-2.5,1.65 -4.77,3.77 -7.31,5.58c-2.49,1.89 -5.09,3.69 -7.66,5.53c-2.49,1.94 -4.95,3.9 -7.47,5.72c-2.39,1.94 -5.2,3.4 -7.37,5.37c-2.21,1.92 -4.52,3.61 -6.7,5.26c-2.1,1.71 -4.41,3.08 -6.22,4.62c-7.02,6.29 -12.92,10.15 -12.92,10.15c0,0 2.21,-6.28 7.39,-15.17c1.3,-2.21 3.07,-4.25 4.9,-6.49c1.84,-2.22 3.77,-4.62 5.93,-6.92c2.1,-2.39 4.57,-4.45 7.05,-6.62c2.48,-2.17 5.09,-4.27 7.69,-6.38c5.49,-3.75 11.05,-7.45 16.58,-10.3c5.55,-2.84 10.79,-5.34 15.56,-6.91c9.36,-3.54 16.199,-4.25 16.199,-4.25Z" style="fill:#888a8d;fill-rule:nonzero;"/><path d="M1622.69,168.08c0,0 -4.26,5.25 -11.1,12.04c-3.37,3.48 -7.4,7.32 -11.73,11.37c-4.33,4.05 -8.951,8.31 -13.57,12.52c-4.651,4.18 -9.22,8.38 -13.57,12.28c-2.061,2.05 -4.14,3.94 -6.15,5.75c-1.86,1.9 -3.691,3.66 -5.441,5.26c-3.189,3.4 -6.209,6.15 -7.999,8.32c-1.92,2.1 -3.17,3.32 -3.17,3.32c0,0 0.23,-1.64 0.88,-4.52c0.35,-1.43 0.69,-3.26 1.52,-5.1c0.75,-1.9 1.53,-4.13 2.69,-6.36c2.24,-4.52 5.369,-9.51 9.24,-14.41c2.03,-2.34 3.94,-4.98 6.24,-7.28c2.25,-2.34 4.57,-4.71 7.03,-6.89c4.859,-4.44 10.089,-8.43 15.2,-11.84c2.47,-1.82 5.09,-3.24 7.5,-4.7c2.399,-1.46 4.8,-2.66 7,-3.76c8.81,-4.42 15.43,-6 15.43,-6Z" style="fill:#888a8d;fill-rule:nonzero;"/><path d="M180.588,731.74c0,0 -191.77,-27.17 -179.694,-0.78c12.075,26.38 186.677,56.65 186.677,56.65l-6.983,-55.87Z" style="fill:#75676b;fill-rule:nonzero;"/><path d="M3439.97,713.74l0,-54.81c59.68,-341.04 298.41,-432.4 298.41,-432.4c-2.81,-1.44 -5.65,-2.75 -8.49,-3.95c-30.38,-3.8 -81.94,5.84 -161.99,66.83c-146.67,111.74 -243.64,320.74 -238.22,376.88c0,0 -3.08,432.25 327.089,494.46c-181.479,-104.75 -216.799,-447.01 -216.799,-447.01Z" style="fill:#a9aaab;fill-rule:nonzero;"/><path d="M3139.26,681.06c-0.99,1.2 -1.36,2.23 -1.36,2.23l1.36,-2.23Z" style="fill:#a69798;fill-rule:nonzero;"/><path d="M3329.68,666.29c-5.42,-56.14 91.55,-265.14 238.22,-376.88c80.05,-60.99 131.61,-70.63 161.99,-66.83c-164.69,-69.95 -380.62,255.52 -412.94,293.84c-32.88,38.98 -152.25,123.02 -152.25,123.02l-25.44,41.62c6.84,-8.26 43.19,-24.28 191.08,238.52c169.3,300.85 326.429,241.17 326.429,241.17c-330.169,-62.21 -327.089,-494.46 -327.089,-494.46Z" style="fill:#868688;fill-rule:nonzero;"/><path d="M2327.91,377.58c0,0 47.5,-12.18 60.9,-17.05c13.4,-4.88 26.8,46.28 49.94,57.24c23.14,10.96 74.3,-14.62 74.3,-14.62c0,0 18.27,42.64 41.41,58.47c23.14,15.84 81.61,-13.4 81.61,-13.4c0,0 18.26,54.82 40.19,64.56c21.93,9.74 63.34,-23.15 63.34,-23.15c0,0 21.92,42.64 40.19,54.81c18.27,12.18 62.11,-24.36 62.11,-24.36c0,0 15.84,45.07 40.2,53.6c24.36,8.52 65.78,-21.93 65.78,-21.93c0,0 -2.44,40.2 19.49,49.94c21.92,9.75 64.55,-18.27 64.55,-18.27c0,0 -7.31,24.36 15.83,36.54c23.14,12.18 66.99,0 75.51,-7.31c8.54,-7.3 24.37,21.93 24.37,21.93l7.31,49.94c0,0 -17.06,28.01 -21.93,41.41c-4.87,13.4 -29.23,-15.83 -29.23,-15.83c0,0 -59.69,13.39 -63.34,41.41c0,0 -41.42,-34.11 -66.99,-30.45c0,0 -21.92,38.98 -21.92,56.03c0,0 -38.98,-32.89 -57.25,-32.89c-18.27,0 -28.02,51.16 -25.58,63.34c2.44,12.18 -42.62,-25.58 -63.33,-25.58c0,0 -45.07,45.05 -38.98,62.11l-49.94,-25.57c0,0 -54.8,24.36 -37.75,58.46c0,0 -23.15,8.53 -63.35,-10.96c0,0 -45.06,45.07 -41.41,59.68c3.66,14.62 -54.8,-34.11 -54.8,-34.11l-52.38,63.34l-58.46,-21.92l-80.39,-555.41Z" style="fill:#ad9633;fill-rule:nonzero;"/><path d="M3063.59,679.64c-42.62,8.53 -345.91,-69.43 -483.54,-112.05c-137.64,-42.63 -372.71,7.31 -444.57,6.09c-71.86,-1.22 -292.33,-54.81 -412.91,-88.92c-120.58,-34.1 -736.89,-24.36 -768.56,-7.31c-31.67,17.06 -131.54,23.15 -188.79,43.85c-57.25,20.71 -241.17,7.31 -295.978,2.44c-54.811,-4.87 -115.71,18.27 -146.161,30.45c-30.45,12.18 -56.027,2.43 -99.874,13.4c-43.847,10.96 -62.121,12.18 -97.442,4.87c-15.541,-3.21 -31.785,-3.6 -45.108,-3.02c-41.146,19.42 -66.205,39.11 -44.537,51.69c29.829,17.32 135.933,133.9 135.933,133.9l-171.159,-24.07c-26.012,104.04 702.316,357.66 702.316,357.66c750.67,189.3 1323.35,48.77 1612.73,-94.29c305.49,-151.03 783.61,-273.13 783.61,-273.13c0,0 234.1,-26.01 234.1,-45.52c0,-3.08 -1.43,-6.23 -3.97,-9.39c-11.22,2.3 -24.76,4.42 -40.75,7.26c-54.8,9.75 -182.7,-2.43 -225.34,6.09Z" style="fill:#c4c4c6;fill-rule:nonzero;"/><path d="M3190.59,626.91c-91.04,-6.5 -201.59,-16.26 -582.01,-159.32c-380.43,-143.07 -893.47,-371.81 -1533.31,-258.27c-639.847,113.54 -942.933,338.68 -942.933,338.68c-18.426,6.85 -36.186,14.12 -51.68,21.44c13.323,-0.58 29.567,-0.19 45.108,3.02c35.321,7.31 53.595,6.09 97.442,-4.87c43.847,-10.97 69.424,-1.22 99.874,-13.4c30.451,-12.18 91.35,-35.32 146.161,-30.45c54.808,4.87 238.728,18.27 295.978,-2.44c57.25,-20.7 157.12,-26.79 188.79,-43.85c31.67,-17.05 647.98,-26.79 768.56,7.31c120.58,34.11 341.05,87.7 412.91,88.92c71.86,1.22 306.93,-48.72 444.57,-6.09c137.63,42.62 440.92,120.58 483.54,112.05c42.64,-8.52 170.54,3.66 225.34,-6.09c15.99,-2.84 29.53,-4.96 40.75,-7.26c-13.55,-16.89 -62.4,-33.9 -139.09,-39.38Z" style="fill:#616470;fill-rule:nonzero;"/><path d="M797.5,519.61c0,0 7.94,10.47 20.57,29.63c12.65,19.16 30.08,46.98 48.83,81.68c9.4,17.33 19.24,36.34 28.7,56.93c9.55,20.55 19.22,42.48 27.82,65.84c8.67,23.32 16.61,47.94 22.6,73.76c5.97,25.81 10.22,52.83 9.86,80.91c-0.51,14.05 -1.9,28.32 -5.76,42.51l-0.32,1.33l-0.16,0.66l-0.08,0.33l-0.26,0.85l-0.76,2.32l-1.52,4.62l-1.54,4.61c-0.55,1.57 -1.36,3.38 -2.03,5.05c-1.44,3.37 -2.77,6.89 -4.34,10.09l-4.83,9.44c-13.61,24.79 -33.64,45.63 -56.23,59.67c-22.44,14.46 -46.89,22.43 -69.97,26.94c-23.15,4.7 -45.34,5.18 -65.47,4.23c-20.16,-1.03 -38.35,-4.1 -54.14,-7.76c-15.82,-3.57 -29.23,-7.99 -40.05,-12.04c-10.84,-4.03 -19.04,-7.93 -24.59,-10.57c-5.48,-2.8 -8.41,-4.29 -8.41,-4.29c0,0 3.15,0.88 9.07,2.54c5.89,1.66 14.63,3.73 25.71,6.1c22.21,4.46 54.41,8.98 92.48,7.36c9.49,-0.61 19.34,-1.33 29.37,-2.98c10.04,-1.46 20.3,-3.42 30.57,-6.24c20.52,-5.59 41.2,-14.34 59.42,-27.27c9.03,-6.54 17.73,-13.79 25.11,-22.39c7.42,-8.55 13.89,-18.03 19.34,-28.22l3.79,-7.84c1.22,-2.61 2.07,-5.19 3.15,-7.77c0.5,-1.33 1.05,-2.48 1.54,-3.97l1.47,-4.64l1.48,-4.63l0.75,-2.32c-0.05,0.15 0.23,-0.75 -0.09,0.27l0.06,-0.26l0.11,-0.52l0.23,-1.05c2.93,-10.96 4,-22.83 4.41,-34.83c0.5,-24.18 -3.19,-49.13 -8.12,-73.46c-5.11,-24.36 -11.78,-48.23 -19.03,-71.18c-7.35,-22.91 -15.01,-45.02 -22.91,-65.79c-8.01,-20.73 -15.73,-40.34 -23.2,-58.33c-15.09,-35.92 -28.26,-65.76 -37.69,-86.58c-9.51,-20.83 -14.94,-32.74 -14.94,-32.74Z" style="fill:#888a8d;fill-rule:nonzero;"/><path d="M653.16,711.3c0,0 4.57,5.68 11.62,16.34c7,10.67 16.59,26.28 25.95,46.25c4.68,9.97 9.41,21 13.44,33.1c4.05,12.07 7.86,25.11 9.93,39.13c2.09,13.97 3.19,28.94 1.01,44.26c-2.02,15.27 -7.72,30.89 -17.19,44.17l-0.21,0.32l-0.11,0.16c-0.17,0.23 0.25,-0.29 -0.42,0.55l-0.44,0.52l-0.88,1.04l-1.75,2.07c-1.24,1.4 -2.17,2.7 -3.84,4.24c-3.03,2.99 -6.09,6.02 -9.25,8.32c-6.18,5.09 -13.05,8.96 -19.89,12.53c-13.88,6.8 -28.45,10.37 -42.38,12.74c-13.97,2.37 -27.54,2.92 -40.28,2.79c-12.75,-0.06 -24.71,-1.11 -35.641,-2.49c-21.899,-2.69 -39.71,-6.97 -52.024,-10.33c-12.314,-3.41 -19.13,-6.01 -19.13,-6.01c0,0 7.223,1 19.835,2.2c12.609,1.19 30.62,2.61 52.09,2.97c21.42,0.17 46.5,-0.61 72,-6.02c12.73,-2.64 25.36,-6.94 37.12,-12.71c5.71,-3.12 11.4,-6.41 16.28,-10.62c2.67,-1.99 4.66,-4.14 6.81,-6.22c1.98,-1.91 4.97,-5.83 6.41,-7.62c7.47,-10.22 12.36,-22.45 14.28,-35.41c1.92,-12.93 2.05,-26.27 0.62,-39.19c-2.83,-25.92 -9.94,-49.99 -16.73,-70.3c-7.01,-20.31 -13.96,-36.98 -19,-48.6c-5.04,-11.62 -8.23,-18.18 -8.23,-18.18Z" style="fill:#888a8d;fill-rule:nonzero;"/><path d="M928.42,736.89c0,0 41.41,-86.49 386.11,-46.29c344.69,40.2 470.15,32.88 377.58,65.77c-92.57,32.89 -470.15,43.86 -510.34,87.7c-40.2,43.85 -283.8,-52.36 -253.35,-107.18Z" style="fill:#a9aaab;fill-rule:nonzero;"/><path d="M388.844,631.53c0,31.95 -25.083,57.85 -56.027,57.85c-30.943,0 -56.028,-25.9 -56.028,-57.85c0,-31.96 25.085,-57.86 56.028,-57.86c30.944,0 56.027,25.9 56.027,57.86Z" style="fill:#c59b9c;fill-rule:nonzero;"/><path d="M370.577,629.09c0,21.86 -17.721,39.59 -39.586,39.59c-21.865,0 -39.586,-17.73 -39.586,-39.59c0,-21.86 17.721,-39.58 39.586,-39.58c21.865,0 39.586,17.72 39.586,39.58Z" style="fill:#67515d;fill-rule:nonzero;"/><path d="M277.26,730.23c0.002,0 1.412,3 2.93,8.61c1.492,5.57 3.515,13.78 2.855,24.05c-0.391,5.08 -1.407,10.79 -4.5,16.27c-3.121,5.42 -8.719,9.99 -15.235,12.04c-6.544,1.94 -13.335,2.33 -20.233,1c-6.75,-1.29 -13.085,-3.31 -19.378,-5.6c-25.056,-9.29 -47.76,-23.19 -63.994,-34.49c-8.069,-5.75 -14.464,-10.97 -18.89,-14.66c-4.305,-3.83 -6.763,-6.02 -6.763,-6.02c0,0 2.705,1.86 7.442,5.13c4.732,3.26 11.587,7.76 20.03,12.76c8.335,5.17 18.359,10.72 29.326,16.12c10.932,5.46 22.838,10.83 34.999,15.21c6.058,2.16 12.326,4 18.276,5.15c5.785,1.24 12.053,0.94 17.325,-0.57c5.311,-1.54 9.659,-4.71 12.402,-8.98c2.829,-4.22 4.28,-9.16 5.011,-13.82c1.251,-9.41 0.523,-17.65 -0.156,-23.29c-0.778,-5.67 -1.451,-8.91 -1.447,-8.91Z" style="fill:#75676b;fill-rule:nonzero;"/><path d="M964.96,744.12c0.03,0.04 0.47,-0.57 1.65,-1.33c1.13,-0.83 2.87,-2.02 5.31,-3.22c2.36,-1.39 5.44,-2.71 9.11,-4.19c3.61,-1.67 7.95,-2.99 12.81,-4.49c4.83,-1.67 10.28,-3.04 16.24,-4.44c5.95,-1.51 12.4,-3.08 19.37,-4.26c6.96,-1.22 14.35,-2.89 22.2,-3.99c7.87,-1.05 16.14,-2.17 24.77,-3.32c8.63,-1.2 17.67,-1.78 27.01,-2.73c9.34,-0.84 19.01,-1.85 28.95,-2.26c19.9,-1.01 40.89,-2.55 62.62,-2.65c21.72,-0.45 44.18,-1.03 66.97,-0.49c22.8,0.23 45.97,0.44 69.11,1.42c23.12,1.06 46.29,1.55 69.02,3.08c22.74,1.47 45.11,2.91 66.77,4.3c21.65,1.42 42.51,3.58 62.32,5.28c19.81,1.76 38.53,3.49 55.79,5.27c34.49,3.8 63.18,7.54 83.28,9.88c20.07,2.59 31.54,4.07 31.54,4.07c0,0 -11.55,-0.57 -31.77,-1.55c-20.2,-1.24 -49.08,-2.62 -83.661,-4.95c-34.599,-1.93 -74.969,-4.17 -118.229,-6.57c-21.62,-1.03 -43.96,-2.1 -66.66,-3.19c-22.69,-1.38 -45.77,-1.7 -68.84,-2.63c-23.05,-1.13 -46.12,-1.49 -68.82,-1.87c-11.36,-0.13 -22.62,-0.58 -33.74,-0.62c-11.13,-0.01 -22.12,-0.01 -32.92,-0.01c-21.63,-0.21 -42.49,0.52 -62.31,0.89c-9.91,0.06 -19.5,0.84 -28.81,1.23c-9.29,0.54 -18.32,0.7 -26.91,1.49c-8.6,0.74 -16.85,1.45 -24.69,2.11c-7.86,0.59 -15.22,1.78 -22.19,2.56c-7,0.73 -13.45,1.88 -19.41,3c-5.99,1.02 -11.48,2.03 -16.32,3.37c-4.89,1.21 -9.28,2.21 -12.96,3.52c-3.74,1.15 -6.9,2.2 -9.33,3.37c-2.53,0.99 -4.32,2 -5.51,2.74c-1.24,0.65 -1.73,1.23 -1.76,1.18Z" style="fill:#888a8d;fill-rule:nonzero;"/><path d="M1712.02,743.1c0,0 -11.74,0.2 -32.27,0.56c-20.52,0.12 -49.85,0.66 -85.04,0.64c-35.18,0.08 -76.22,-0.1 -120.18,-0.59c-21.98,-0.28 -44.7,-0.59 -67.78,-0.88c-23.07,-0.3 -46.63,-1.09 -70.04,-1.98c-23.42,-0.97 -46.81,-1.93 -69.83,-2.55c-23.03,-0.61 -45.68,-1.22 -67.6,-1.39c-21.91,-0.01 -43.09,0.05 -63.15,0.62c-20.06,0.65 -39,1.66 -56.46,3c-8.71,0.85 -17.05,1.67 -24.99,2.45c-7.9,1.09 -15.39,2.12 -22.43,3.09c-7.03,1.03 -13.49,2.59 -19.55,3.72c-6.09,1.03 -11.5,2.65 -16.39,4.07c-4.89,1.47 -9.36,2.51 -13.1,3.82c-3.69,1.45 -6.84,2.69 -9.38,3.7c-5.12,2.01 -7.85,3.09 -7.85,3.09c0,0 2.63,-1.3 7.55,-3.74c2.48,-1.22 5.53,-2.73 9.12,-4.5c3.64,-1.67 8.05,-3.01 12.89,-4.79c4.86,-1.74 10.24,-3.72 16.29,-5.13c6.02,-1.52 12.48,-3.51 19.5,-5c7.05,-1.42 14.55,-2.94 22.45,-4.53c7.98,-1.17 16.36,-2.39 25.1,-3.68c8.77,-1.13 17.93,-1.98 27.4,-3.03c9.48,-0.96 19.31,-1.46 29.4,-2.24c20.2,-1.23 41.51,-2.07 63.56,-2.37c22.04,-0.17 44.83,-0.33 67.95,0.28c23.12,0.49 46.59,1.28 70.03,2.12c23.45,1.04 46.75,1.98 69.84,2.42c23.07,0.69 45.77,1.36 67.75,2.02c43.94,1.4 84.95,2.97 120.089,4.57c35.141,1.48 64.421,3.28 84.911,4.28c20.5,1.24 32.21,1.95 32.21,1.95Z" style="fill:#888a8d;fill-rule:nonzero;"/><path d="M990.41,789.92c0,0 2.01,-1.83 6.23,-4.74c4.22,-2.87 10.57,-6.98 19.29,-10.96c8.68,-4.04 19.56,-8.28 32.39,-12.08c12.87,-3.67 27.68,-6.82 44.04,-8.92c16.36,-1.97 34.23,-2.98 53.12,-2.74c18.65,0.05 38.31,0.11 58.66,0.18c40.74,-0.02 84.2,-0.03 127.67,-0.05c86.92,0.4 173.84,0.79 239.04,1.09c32.59,0.07 59.76,0.39 78.76,-0.12c9.5,-0.22 16.96,-0.4 22.05,-0.72c5.08,-0.32 7.79,-0.64 7.79,-0.64c0,0 -10.69,2.28 -29.7,3.89c-18.99,1.63 -46.14,3.69 -78.75,5.07c-32.61,1.52 -70.67,2.65 -111.45,3.38c-20.39,0.3 -41.45,0.77 -62.86,0.82c-21.41,0.08 -43.16,0.15 -64.91,0.22c-21.75,-0.15 -43.49,-0.31 -64.9,-0.46c-21.41,-0.16 -42.48,-0.69 -62.87,-1.09c-20.38,-0.39 -40.12,-1.08 -58.85,-1.94c-18.46,-0.79 -35.96,-0.69 -52.06,0.47c-16.06,1.39 -30.74,3.44 -43.59,6.19c-12.81,2.89 -23.77,6.33 -32.58,9.75c-17.7,6.79 -26.52,13.4 -26.52,13.4Z" style="fill:#888a8d;fill-rule:nonzero;"/><path d="M1615.33,765.49c0,0 -9.09,1.26 -25.02,3.16c-15.931,1.78 -38.7,4.39 -66.08,7c-13.68,1.39 -28.52,2.78 -44.23,3.8c-15.73,1.1 -32.3,2.27 -49.45,3.47c-17.15,1.15 -34.87,2.43 -52.98,2.64c-18.09,0.46 -36.46,0.92 -54.83,1.38l-13.78,0.24l-13.78,-0.33c-9.12,-0.26 -18.2,-0.52 -27.22,-0.78c-18.03,-0.88 -35.77,-1.76 -52.94,-2.59c-8.55,-0.5 -16.96,-0.78 -25.15,-0.98c-8.21,-0.18 -16.26,-0.65 -24.06,-0.57c-15.58,0.39 -30.39,0.17 -43.93,1.69c-6.78,0.59 -13.31,0.99 -19.49,1.67c-6.14,0.94 -11.98,1.83 -17.45,2.67c-5.5,0.84 -10.65,1.62 -15.4,2.35c-4.68,1.13 -8.98,2.16 -12.86,3.1c-15.55,3.71 -24.55,5.67 -24.55,5.67c0,0 8.62,-3.06 23.89,-8.12c3.83,-1.25 8.07,-2.63 12.68,-4.14c4.73,-1.12 9.83,-2.32 15.29,-3.61c5.48,-1.29 11.3,-2.66 17.45,-4.11c6.19,-1.19 12.79,-1.87 19.64,-2.9c13.71,-2.36 28.69,-3.03 44.56,-3.98c15.81,-0.37 32.59,-0.8 49.76,-0.19c17.25,0.43 34.91,0.77 52.86,1.49c9.01,0.18 18.09,0.37 27.2,0.55l13.62,0.22l13.68,-0.35c18.24,-0.31 36.49,-0.62 54.45,-0.92c8.99,-0.24 17.89,-0.15 26.71,-0.46c8.82,-0.35 17.52,-0.71 26.09,-1.05c34.29,-1.19 66.3,-2.31 93.73,-3.28c27.44,-1.14 50.36,-1.43 66.379,-2.09c16.031,-0.52 25.211,-0.65 25.211,-0.65Z" style="fill:#888a8d;fill-rule:nonzero;"/><path d="M1076.92,823.51c0,0 0.76,-0.55 2.18,-1.58c1.45,-0.96 3.52,-2.57 6.33,-4.26c2.81,-1.69 6.14,-3.94 10.23,-6.01c4.02,-2.22 8.61,-4.66 13.84,-6.85c5.12,-2.49 10.95,-4.54 17.17,-6.66c3.05,-1.21 6.42,-1.82 9.77,-2.72c3.41,-0.75 6.77,-1.93 10.48,-2.14c3.67,-0.39 7.4,-0.78 11.18,-1.18c3.91,-0.27 7.3,-0.13 11.03,-0.11c7.32,0.08 14.75,0.16 22.18,0.25c7.43,0.27 14.86,0.55 22.17,0.83c7.31,0.15 14.54,0.91 21.45,1.03c6.91,0.15 13.61,0.53 19.96,0.85c6.36,0.35 12.37,0.68 17.92,0.99c22.05,-0.02 37.18,1.1 37.18,1.1c0,0 -14.52,3.23 -36.94,6.37c-5.59,0.61 -11.65,0.91 -18.07,1.24c-6.42,0.34 -13.2,0.74 -20.21,0.9c-7.03,0.21 -14.18,0.22 -21.5,0.08c-7.31,-0.13 -14.74,-0.27 -22.17,-0.39c-7.42,-0.24 -14.85,-0.47 -22.17,-0.71c-3.57,-0.03 -7.44,-0.38 -10.69,-0.35c-3.37,0.15 -6.7,0.29 -9.98,0.44c-3.29,-0.09 -6.53,0.97 -9.73,1.26c-3.19,0.54 -6.37,0.75 -9.37,1.61c-6.04,1.49 -11.87,2.62 -17.11,4.29c-10.61,2.92 -19.33,6.08 -25.49,8.19c-6.12,2.17 -9.64,3.53 -9.64,3.53Z" style="fill:#888a8d;fill-rule:nonzero;"/></g></svg>