<?xml version="1.0" encoding="UTF-8" standalone="no"?><!DOCTYPE svg PUBLIC "-//W3C//DTD SVG 1.1//EN" "http://www.w3.org/Graphics/SVG/1.1/DTD/svg11.dtd"><svg width="100%" height="100%" viewBox="0 0 59 83" version="1.1" xmlns="http://www.w3.org/2000/svg" xmlns:xlink="http://www.w3.org/1999/xlink" xml:space="preserve" xmlns:serif="http://www.serif.com/" style="fill-rule:evenodd;clip-rule:evenodd;stroke-linejoin:round;stroke-miterlimit:1.41421;"><g><path d="M33.789,66.541c0,0 6.713,-15.064 4.265,-26.858c-2.447,-11.795 -9.941,-31.899 -10.483,-37.796c-0.543,-5.897 -1.432,11.526 -3.4,18.227c-1.968,6.701 -3.752,20.641 -3.04,28.95c0.712,8.31 4.548,17.783 4.548,17.783l8.11,-0.306Z" style="fill:#49715c;fill-rule:nonzero;"/><path d="M26.64,9.39l-0.265,0c-0.733,0 -0.857,0.302 -0.857,0.677c0,0.371 0,0.675 0.857,0.675l0.265,0" style="fill:#416351;fill-rule:nonzero;"/><path d="M27.202,15.042l-0.263,0c-0.735,0 -0.861,0.302 -0.861,0.675c0,0.373 0,0.675 0.861,0.675l0.263,0" style="fill:#416351;fill-rule:nonzero;"/><path d="M25.303,17.895l-0.264,0c-0.734,0 -0.86,0.302 -0.86,0.675c0,0.373 0,0.675 0.86,0.675l0.264,0" style="fill:#416351;fill-rule:nonzero;"/><path d="M27.202,21.317l-0.263,0c-0.735,0 -0.861,0.301 -0.861,0.674c0,0.373 0,0.675 0.861,0.675l0.263,0" style="fill:#416351;fill-rule:nonzero;"/><path d="M23.984,23.25l-0.264,0c-0.732,0 -0.86,0.303 -0.86,0.675c0,0.373 0,0.676 0.86,0.676l0.264,0" style="fill:#416351;fill-rule:nonzero;"/><path d="M26.078,26.752l-0.263,0c-0.733,0 -0.861,0.303 -0.861,0.676c0,0.372 0,0.675 0.861,0.675l0.263,0" style="fill:#416351;fill-rule:nonzero;"/><path d="M22.86,30.251l-0.262,0c-0.734,0 -0.861,0.302 -0.861,0.675c0,0.373 0,0.675 0.861,0.675l0.262,0" style="fill:#416351;fill-rule:nonzero;"/><path d="M26.64,33.093l-0.265,0c-0.733,0 -0.859,0.3 -0.859,0.673c0,0.373 0,0.675 0.859,0.675l0.265,0" style="fill:#416351;fill-rule:nonzero;"/><path d="M23.984,36.968l-0.264,0c-0.732,0 -0.86,0.302 -0.86,0.673c0,0.375 0,0.675 0.86,0.675l0.264,0" style="fill:#416351;fill-rule:nonzero;"/><path d="M26.078,40.865l-0.263,0c-0.733,0 -0.861,0.302 -0.861,0.675c0,0.373 0,0.675 0.861,0.675l0.263,0" style="fill:#416351;fill-rule:nonzero;"/><path d="M25.303,45.834l-0.264,0c-0.734,0 -0.86,0.303 -0.86,0.675c0,0.373 0,0.676 0.86,0.676l0.264,0" style="fill:#416351;fill-rule:nonzero;"/><path d="M25.303,52.451l-0.264,0c-0.734,0 -0.86,0.302 -0.86,0.675c0,0.373 0,0.675 0.86,0.675l0.264,0" style="fill:#416351;fill-rule:nonzero;"/><path d="M19.389,67.793c0,0 5.376,-12.066 3.415,-21.514c-1.961,-9.449 -7.963,-25.553 -8.397,-30.276c-0.434,-4.725 -1.147,9.232 -2.723,14.6c-1.577,5.369 -3.007,16.535 -2.436,23.191c0.571,6.656 3.645,14.244 3.645,14.244l6.496,-0.245Z" style="fill:#538a70;fill-rule:nonzero;"/><path d="M11.719,43.007l-0.262,0c-0.734,0 -0.86,0.303 -0.86,0.676c0,0.372 0,0.675 0.86,0.675l0.262,0" style="fill:#4b7e65;fill-rule:nonzero;"/><path d="M10.035,46.732l-0.264,0c-0.733,0 -0.861,0.301 -0.861,0.675c0,0.371 0,0.674 0.861,0.674l0.264,0" style="fill:#4b7e65;fill-rule:nonzero;"/><path d="M11.355,50.299l-0.263,0c-0.735,0 -0.861,0.303 -0.861,0.675c0,0.373 0,0.676 0.861,0.676l0.263,0" style="fill:#4b7e65;fill-rule:nonzero;"/><path d="M10.035,53.671l-0.264,0c-0.733,0 -0.861,0.303 -0.861,0.676c0,0.373 0,0.675 0.861,0.675l0.264,0" style="fill:#4b7e65;fill-rule:nonzero;"/><path d="M12.487,58.461l-0.264,0c-0.734,0 -0.86,0.302 -0.86,0.675c0,0.373 0,0.675 0.86,0.675l0.264,0" style="fill:#4b7e65;fill-rule:nonzero;"/><path d="M10.597,38.765l-0.266,0c-0.732,0 -0.858,0.302 -0.858,0.675c0,0.373 0,0.675 0.858,0.675l0.266,0" style="fill:#4b7e65;fill-rule:nonzero;"/><path d="M12.843,35.491l-0.263,0c-0.735,0 -0.861,0.301 -0.861,0.673c0,0.373 0,0.676 0.861,0.676l0.263,0" style="fill:#4b7e65;fill-rule:nonzero;"/><path d="M11.719,32.215l-0.262,0c-0.734,0 -0.86,0.303 -0.86,0.675c0,0.373 0,0.676 0.86,0.676l0.262,0" style="fill:#4b7e65;fill-rule:nonzero;"/><path d="M13.405,29.576l-0.265,0c-0.733,0 -0.859,0.302 -0.859,0.675c0,0.373 0,0.675 0.859,0.675l0.265,0" style="fill:#4b7e65;fill-rule:nonzero;"/><path d="M13.112,24.601l-0.264,0c-0.732,0 -0.858,0.302 -0.858,0.675c0,0.373 0,0.675 0.858,0.675l0.264,0" style="fill:#4b7e65;fill-rule:nonzero;"/><path d="M46.414,66.908c0,0 5.142,-11.539 3.266,-20.575c-1.875,-9.037 -7.618,-24.441 -8.032,-28.957c-0.415,-4.519 -1.096,8.831 -2.604,13.966c-1.51,5.132 -2.875,15.811 -2.33,22.177c0.546,6.368 3.486,13.625 3.486,13.625l6.214,-0.236Z" style="fill:#538a70;fill-rule:nonzero;"/><path d="M39.154,45.159l-0.264,0c-0.734,0 -0.861,0.302 -0.861,0.675c0,0.373 0,0.675 0.861,0.675l0.264,0" style="fill:#4b7e65;fill-rule:nonzero;"/><path d="M37.467,48.882l-0.263,0c-0.733,0 -0.859,0.302 -0.859,0.677c0,0.371 0,0.675 0.859,0.675l0.263,0" style="fill:#4b7e65;fill-rule:nonzero;"/><path d="M38.788,52.451l-0.263,0c-0.735,0 -0.861,0.302 -0.861,0.675c0,0.373 0,0.675 0.861,0.675l0.263,0" style="fill:#4b7e65;fill-rule:nonzero;"/><path d="M37.467,55.823l-0.263,0c-0.733,0 -0.859,0.303 -0.859,0.675c0,0.373 0,0.676 0.859,0.676l0.263,0" style="fill:#4b7e65;fill-rule:nonzero;"/><path d="M39.92,60.613l-0.264,0c-0.734,0 -0.86,0.302 -0.86,0.675c0,0.373 0,0.675 0.86,0.675l0.264,0" style="fill:#4b7e65;fill-rule:nonzero;"/><path d="M38.029,40.917l-0.263,0c-0.734,0 -0.859,0.302 -0.859,0.675c0,0.373 0,0.675 0.859,0.675l0.263,0" style="fill:#4b7e65;fill-rule:nonzero;"/><path d="M40.276,37.641l-0.264,0c-0.732,0 -0.858,0.304 -0.858,0.675c0,0.375 0,0.675 0.858,0.675l0.264,0" style="fill:#4b7e65;fill-rule:nonzero;"/><path d="M39.154,34.367l-0.264,0c-0.734,0 -0.861,0.302 -0.861,0.675c0,0.373 0,0.675 0.861,0.675l0.264,0" style="fill:#4b7e65;fill-rule:nonzero;"/><path d="M40.838,31.727l-0.264,0c-0.734,0 -0.86,0.305 -0.86,0.676c0,0.372 0,0.675 0.86,0.675l0.264,0" style="fill:#4b7e65;fill-rule:nonzero;"/><path d="M40.545,26.752l-0.262,0c-0.734,0 -0.86,0.303 -0.86,0.676c0,0.372 0,0.675 0.86,0.675l0.262,0" style="fill:#4b7e65;fill-rule:nonzero;"/><path d="M0.337,80.112c0,1.41 1.144,2.552 2.554,2.552l53.297,0c1.411,0 2.554,-1.142 2.554,-2.552l0,-11.171c0,-1.409 -1.143,-2.554 -2.554,-2.554l-53.297,0c-1.41,0 -2.554,1.145 -2.554,2.554l0,11.171Z" style="fill:#ac9583;fill-rule:nonzero;"/></g></svg>